<mxfile host="app.diagrams.net" agent="Mozilla/5.0 (Windows NT 10.0; Win64; x64; rv:143.0) Gecko/20100101 Firefox/143.0" version="28.2.5">
  <diagram name="Page-1" id="ytx7Wn_b5PY4A54RaLdV">
    <mxGraphModel dx="1296" dy="1790" grid="1" gridSize="10" guides="1" tooltips="1" connect="1" arrows="1" fold="1" page="1" pageScale="1" pageWidth="850" pageHeight="1100" math="0" shadow="0">
      <root>
        <mxCell id="0" />
        <mxCell id="1" parent="0" />
        <mxCell id="DE8VcFG0vpm-A82ZVfUs-12" value="" style="rounded=1;whiteSpace=wrap;html=1;fillColor=none;arcSize=7;" vertex="1" parent="1">
          <mxGeometry x="3" y="40" width="520" height="300" as="geometry" />
        </mxCell>
        <mxCell id="DE8VcFG0vpm-A82ZVfUs-1" value="开行方案" style="whiteSpace=wrap;strokeWidth=2;" vertex="1" parent="1">
          <mxGeometry x="204" y="70" width="124" height="54" as="geometry" />
        </mxCell>
        <mxCell id="DE8VcFG0vpm-A82ZVfUs-2" value="编组计划" style="whiteSpace=wrap;strokeWidth=2;" vertex="1" parent="1">
          <mxGeometry x="30" y="174" width="124" height="54" as="geometry" />
        </mxCell>
        <mxCell id="DE8VcFG0vpm-A82ZVfUs-3" value="停站计划" style="whiteSpace=wrap;strokeWidth=2;" vertex="1" parent="1">
          <mxGeometry x="204" y="174" width="124" height="54" as="geometry" />
        </mxCell>
        <mxCell id="DE8VcFG0vpm-A82ZVfUs-4" value="交路计划" style="whiteSpace=wrap;strokeWidth=2;" vertex="1" parent="1">
          <mxGeometry x="378" y="174" width="124" height="54" as="geometry" />
        </mxCell>
        <mxCell id="DE8VcFG0vpm-A82ZVfUs-5" value="基本图" style="whiteSpace=wrap;strokeWidth=2;" vertex="1" parent="1">
          <mxGeometry x="212" y="278" width="108" height="54" as="geometry" />
        </mxCell>
        <mxCell id="DE8VcFG0vpm-A82ZVfUs-6" value="" style="curved=1;startArrow=none;endArrow=block;exitX=0;exitY=0.84;entryX=0.5;entryY=0;rounded=0;" edge="1" parent="1" source="DE8VcFG0vpm-A82ZVfUs-1" target="DE8VcFG0vpm-A82ZVfUs-2">
          <mxGeometry relative="1" as="geometry">
            <Array as="points">
              <mxPoint x="92" y="149" />
            </Array>
          </mxGeometry>
        </mxCell>
        <mxCell id="DE8VcFG0vpm-A82ZVfUs-7" value="" style="curved=1;startArrow=none;endArrow=block;exitX=0.5;exitY=1;entryX=0.5;entryY=0;rounded=0;" edge="1" parent="1" source="DE8VcFG0vpm-A82ZVfUs-1" target="DE8VcFG0vpm-A82ZVfUs-3">
          <mxGeometry relative="1" as="geometry">
            <Array as="points" />
          </mxGeometry>
        </mxCell>
        <mxCell id="DE8VcFG0vpm-A82ZVfUs-8" value="" style="curved=1;startArrow=none;endArrow=block;exitX=1;exitY=0.84;entryX=0.5;entryY=0;rounded=0;" edge="1" parent="1" source="DE8VcFG0vpm-A82ZVfUs-1" target="DE8VcFG0vpm-A82ZVfUs-4">
          <mxGeometry relative="1" as="geometry">
            <Array as="points">
              <mxPoint x="440" y="149" />
            </Array>
          </mxGeometry>
        </mxCell>
        <mxCell id="DE8VcFG0vpm-A82ZVfUs-9" value="" style="curved=1;startArrow=none;endArrow=block;exitX=0.5;exitY=1;entryX=0;entryY=0.2;rounded=0;" edge="1" parent="1" source="DE8VcFG0vpm-A82ZVfUs-2" target="DE8VcFG0vpm-A82ZVfUs-5">
          <mxGeometry relative="1" as="geometry">
            <Array as="points">
              <mxPoint x="92" y="253" />
            </Array>
          </mxGeometry>
        </mxCell>
        <mxCell id="DE8VcFG0vpm-A82ZVfUs-10" value="" style="curved=1;startArrow=none;endArrow=block;exitX=0.5;exitY=1;entryX=0.5;entryY=0;rounded=0;" edge="1" parent="1" source="DE8VcFG0vpm-A82ZVfUs-3" target="DE8VcFG0vpm-A82ZVfUs-5">
          <mxGeometry relative="1" as="geometry">
            <Array as="points" />
          </mxGeometry>
        </mxCell>
        <mxCell id="DE8VcFG0vpm-A82ZVfUs-11" value="" style="curved=1;startArrow=none;endArrow=block;exitX=0.5;exitY=1;entryX=1;entryY=0.2;rounded=0;" edge="1" parent="1" source="DE8VcFG0vpm-A82ZVfUs-4" target="DE8VcFG0vpm-A82ZVfUs-5">
          <mxGeometry relative="1" as="geometry">
            <Array as="points">
              <mxPoint x="440" y="253" />
            </Array>
          </mxGeometry>
        </mxCell>
        <mxCell id="DE8VcFG0vpm-A82ZVfUs-13" value="编图系统" style="whiteSpace=wrap;strokeWidth=2;strokeColor=none;fillColor=none;fontSize=24;" vertex="1" parent="1">
          <mxGeometry y="30" width="124" height="54" as="geometry" />
        </mxCell>
        <mxCell id="DE8VcFG0vpm-A82ZVfUs-14" value="客流需求" style="whiteSpace=wrap;strokeWidth=2;" vertex="1" parent="1">
          <mxGeometry x="30" y="-54" width="70" height="34" as="geometry" />
        </mxCell>
        <mxCell id="DE8VcFG0vpm-A82ZVfUs-15" value="车辆资源" style="whiteSpace=wrap;strokeWidth=2;" vertex="1" parent="1">
          <mxGeometry x="221" y="-54" width="70" height="34" as="geometry" />
        </mxCell>
        <mxCell id="DE8VcFG0vpm-A82ZVfUs-16" value="线路资源" style="whiteSpace=wrap;strokeWidth=2;" vertex="1" parent="1">
          <mxGeometry x="320" y="-54" width="72" height="34" as="geometry" />
        </mxCell>
        <mxCell id="DE8VcFG0vpm-A82ZVfUs-17" value="人员资源" style="whiteSpace=wrap;strokeWidth=2;" vertex="1" parent="1">
          <mxGeometry x="420" y="-54" width="72" height="34" as="geometry" />
        </mxCell>
        <mxCell id="DE8VcFG0vpm-A82ZVfUs-18" value="货运需求" style="whiteSpace=wrap;strokeWidth=2;" vertex="1" parent="1">
          <mxGeometry x="122" y="-54" width="72" height="34" as="geometry" />
        </mxCell>
        <mxCell id="DE8VcFG0vpm-A82ZVfUs-19" value="" style="rounded=1;whiteSpace=wrap;html=1;fillColor=none;arcSize=7;" vertex="1" parent="1">
          <mxGeometry x="6" y="-100" width="514" height="90" as="geometry" />
        </mxCell>
        <mxCell id="DE8VcFG0vpm-A82ZVfUs-20" value="信息收集" style="whiteSpace=wrap;strokeWidth=2;strokeColor=none;fillColor=none;fontSize=24;" vertex="1" parent="1">
          <mxGeometry x="6" y="-108" width="124" height="54" as="geometry" />
        </mxCell>
        <mxCell id="DE8VcFG0vpm-A82ZVfUs-22" value="" style="endArrow=classic;html=1;rounded=0;shape=flexArrow;" edge="1" parent="1" source="DE8VcFG0vpm-A82ZVfUs-19" target="DE8VcFG0vpm-A82ZVfUs-12">
          <mxGeometry width="50" height="50" relative="1" as="geometry">
            <mxPoint x="750" y="150" as="sourcePoint" />
            <mxPoint x="800" y="100" as="targetPoint" />
          </mxGeometry>
        </mxCell>
      </root>
    </mxGraphModel>
  </diagram>
</mxfile>
